PathFileType	4	(X/Y/Z)	C:/Users/beibeiliu/ov580/test_trc/User2\sequence.41_training_dense_right.trc
DataRate	CameraRate	NumFrames	NumMarkers	Units	OrigDataRate	OrigDataStartFrame	OrigNumFrames
120	120	20	19	mm	120	114	170
Frame#	Time	ThumbCMC			ThumbMCP			ThumbIP			ThumbTip			IndexMCP			IndexPIP			IndexTip			MiddleMCP			MiddlePIP			MiddleTip			RingMCP			RingPIP			RingTip			PinkyMCP			PinkyPIP			PinkyTip			BackHand1			BackHand2			BackHand3	
		X0	Y0	Z0	X1	Y1	Z1	X2	Y2	Z2	X3	Y3	Z3	X4	Y4	Z4	X5	Y5	Z5	X6	Y6	Z6	X7	Y7	Z7	X8	Y8	Z8	X9	Y9	Z9	X10	Y10	Z10	X11	Y11	Z11	X12	Y12	Z12	X13	Y13	Z13	X14	Y14	Z14	X15	Y15	Z15	X16	Y16	Z16	X17	Y17	Z17	X18	Y18	Z18	
113	0.941667	102.518	78.3275	0.900775	67.4685	93.7599	-7.50226	35.7725	101.772	-27.4249	13.1867	96.9364	-38.7766	91.7032	67.4122	-81.8667	70.6121	79.8923	-101.773	35.4039	84.8742	-107.122	85.0062	41.3883	-89.7653	58.1574	50.0555	-117.092	31.683	61.0511	-125.076	74.5307	21.6528	-83.8562	51.8443	19.758	-105.259	23.7683	34.7772	-118.123	55.7633	-1.5701	-61.2083	31.8295	-1.0646	-78.0911	9.52542	0.279721	-86.3194	102.786	13.4056	-35.2789	118.581	7.78137	-1.83139	125.007	42.9416	-18.1112	
114	0.95	102.479	77.6431	-1.98212	71.4262	92.333	-9.91316	42.5378	100.684	-26.5677	18.2703	98.5519	-44.242	90.7734	68.9463	-82.7803	65.5037	78.4551	-101.43	34.4128	84.4951	-103.385	84.9086	40.2336	-92.6631	62.5499	51.1338	-114.681	31.2492	61.9768	-124.734	75.609	21.4853	-85.015	51.3953	21.7641	-107.285	27.5278	31.2689	-117.02	58.5594	-2.97364	-59.7462	33.0366	-3.21545	-78.3063	11.6141	-0.23381	-87.81	105.062	10.2515	-31.2217	119.843	8.49792	-6.82435	125.961	43.2908	-17.9696	
115	0.958333	105.924	77.7813	0.853661	74.1258	96.0561	-11.7461	46.0132	105.853	-29.7199	23.3704	98.5124	-46.2012	90.4995	66.0253	-82.2622	63.0006	79.2763	-99.6319	31.0949	90.1209	-95.6563	87.8606	43.0331	-92.6341	58.9549	50.0488	-117.979	28.341	65.3201	-126.069	76.173	18.1084	-81.6565	56.1327	23.6987	-106.586	27.8346	33.1758	-117.609	60.4944	0.605287	-63.2683	36.1651	0.77987	-81.2226	15.5526	5.06044	-93.0598	105.614	11.7269	-31.3013	119.557	8.04578	-3.79018	127.386	39.6554	-22.0211	
116	0.966667	105.994	74.1745	-3.6702	74.9393	94.3513	-15.1793	46.4975	106.211	-34.423	26.509	99.8663	-48.0914	89.9989	67.213	-82.6344	60.0082	82.1605	-96.9442	28.4659	86.9604	-86.2471	89.5037	45.1408	-94.5957	60.4426	50.6193	-117.773	29.7401	62.3931	-124.94	77.0599	20.8976	-86.8599	56.5482	22.907	-107.624	30.5846	35.9685	-116.734	62.82	2.39887	-65.7726	41.1315	0.447497	-80.1825	17.0351	9.71443	-95.5724	106.154	13.3283	-36.2542	123.066	7.17192	-2.93755	130.73	41.6177	-19.8118	
117	0.975	106.167	73.576	-3.57761	76.6874	95.2129	-14.6076	49.0088	100.188	-35.6635	25.8463	98.7993	-53.3893	89.0536	72.8438	-84.5064	60.7355	84.3085	-92.8707	30.2685	89.9964	-79.8537	91.2036	45.1649	-94.1226	68.9856	53.5781	-116.235	32.8402	65.8934	-124.328	77.7313	20.1417	-86.2657	57.4721	26.5427	-107.101	29.1519	43.3512	-118.075	60.6436	1.14016	-67.0221	41.4836	2.7398	-81.8402	16.4957	12.7097	-97.5136	107.036	14.0111	-36.3221	118.882	4.27792	-3.49388	128.204	41.5896	-24.1929	
118	0.983333	108.741	76.4923	-1.51654	76.2456	93.1683	-18.1014	48.9853	103.297	-34.3487	27.4704	96.6085	-53.1367	90.5983	72.7624	-80.8829	60.6001	85.4808	-90.1435	30.9695	93.0268	-74.3474	92.6245	45.6613	-91.0441	68.9122	54.272	-116.72	32.76	64.5854	-123.332	76.8638	20.9513	-88.4648	54.1815	27.9253	-108.963	31.1012	45.4567	-117.911	63.3801	3.9405	-63.3717	36.1697	3.94491	-83.5382	19.0946	13.0718	-95.9987	107.977	11.6956	-34.2727	119.131	4.70208	-4.48808	129.554	40.2641	-24.6782	
119	0.991667	106.142	76.6722	-2.44898	75.4061	95.3992	-15.875	48.2367	101.836	-33.6089	25.7308	95.9636	-49.5339	89.658	73.8167	-79.8539	56.6456	83.5361	-87.9904	30.0688	90.9078	-71.8771	91.3271	45.6575	-94.7656	66.3332	54.6166	-117.862	33.5203	63.2545	-122.378	78.9491	24.3819	-85.2487	54.0467	28.4828	-108.727	32.1781	44.5063	-116.06	61.9958	2.40625	-61.8571	37.4335	6.22742	-84.1384	17.4462	13.1547	-97.1266	106.536	14.5989	-32.7245	120.344	8.15923	-7.35175	128.074	44.0876	-22.543	
120	1	106.961	77.954	-1.29831	74.6991	97.5204	-17.3199	46.6322	102.338	-34.4395	25.4351	96.9663	-49.4445	84.9829	72.5168	-82.6499	57.4389	85.1154	-89.0677	30.4103	89.1752	-73.5314	91.599	47.479	-95.0313	68.0435	51.8084	-117.141	33.3989	64.7704	-124.646	78.3688	23.0085	-85.1959	57.4006	25.9484	-107.551	31.0249	40.7314	-117.348	61.2941	2.29109	-62.1134	39.9386	2.96138	-81.0741	16.849	10.5732	-97.35	105.824	15.9252	-36.7158	121.786	8.014	-3.62269	129.077	42.1452	-22.9932	
121	1.00833	106.962	78.562	-2.30405	76.6171	96.704	-11.057	46.3259	104.031	-34.8257	24.8499	99.999	-48.8961	89.4879	70.632	-81.5107	58.6156	86.1052	-91.7528	29.6438	90.8944	-77.3692	91.9065	42.3907	-91.1841	70.0865	52.0666	-118.316	32.0987	64.3348	-125.915	78.6068	19.7416	-85.0258	56.1754	25.3593	-108.745	32.1762	42.9653	-120.543	60.7373	2.8184	-64.3963	41.0043	4.18949	-82.4336	17.1562	7.54049	-97.3941	106.286	14.4171	-35.8846	118.064	6.40471	-5.35354	125.798	40.2552	-23.4716	
122	1.01667	107.729	80.3717	-3.32979	76.3001	99.2314	-12.2129	47.7679	106.453	-31.7871	26.5969	100.528	-48.784	91.8387	73.3311	-85.005	62.9494	84.795	-97.8302	37.5119	92.3375	-89.7209	94.0615	44.1423	-91.4774	70.1046	49.8993	-118.164	36.3491	65.0212	-129.285	78.9138	19.9969	-86.9375	59.0357	25.2648	-110.181	32.2379	38.3877	-122.971	61.2488	5.5989	-67.8137	41.8804	4.20745	-81.7557	14.5627	5.9182	-96.3839	106.384	12.4931	-37.4741	119.172	5.0958	-2.76638	130.833	43.7372	-20.3722	
123	1.025	108.908	79.414	-1.57962	76.3197	100.221	-14.7474	50.6504	107.829	-29.7107	24.692	110.276	-46.8852	94.4471	72.3585	-85.631	68.8946	83.6375	-101.009	34.0092	90.7106	-95.0718	92.1766	42.5862	-93.5706	69.0074	51.3821	-120.548	39.2809	63.5628	-132.098	79.7238	20.1389	-89.2033	60.6997	24.9003	-110.857	35.7123	35.0448	-124.002	62.3487	1.33303	-63.6873	36.9864	0.424855	-83.3381	17.3125	1.84495	-97.8759	105.891	11.3749	-36.0977	120.756	5.83078	-4.61596	129.008	42.9506	-21.0714	
124	1.03333	107.384	76.7076	-3.69967	79.3681	97.1964	-12.979	50.1165	110.34	-30.5438	27.8959	108.07	-46.5014	92.4937	71.8632	-87.2538	66.7175	81.8825	-100.459	37.0462	91.4942	-96.1491	93.5755	45.3793	-96.9296	71.9441	47.1505	-119.661	39.2329	58.9773	-135.372	80.174	18.0282	-87.2168	63.1999	20.151	-111.137	39.5806	33.9729	-128.876	61.4673	-0.681969	-66.7173	39.8333	-1.23021	-84.5225	22.4759	1.44076	-99.9535	105.618	14.4012	-36.6272	121.853	9.04886	-4.43853	129.48	44.2982	-22.1192	
125	1.04167	108.643	77.6685	-2.35333	78.1316	99.702	-14.4257	51.6752	110.42	-30.2095	28.9502	109.636	-49.4277	93.3797	71.9109	-83.6674	66.9315	83.6629	-97.8505	33.2487	91.3237	-90.0313	93.6706	42.1059	-94.2065	72.5045	52.5899	-123.593	39.5994	59.1427	-137.905	84.8297	21.7498	-88.5479	65.7049	20.3574	-114.31	47.2341	32.0802	-130.703	67.5927	4.50465	-66.1918	50.2494	0.0249543	-85.2552	31.3104	0.035576	-103.652	107.564	11.2028	-37.5607	119.781	7.23515	-6.25794	128.608	44.484	-22.9459	
126	1.05	107.092	77.3343	-2.99508	79.4037	98.0002	-13.635	51.9214	111.102	-32.8248	31.0269	106.551	-48.4109	91.6632	75.5825	-82.2955	58.9066	83.0782	-92.8981	30.1268	87.5882	-80.5402	93.66	44.2058	-96.7798	72.1531	51.5791	-122.461	42.7798	58.4181	-137.283	85.9051	19.3202	-89.6975	71.8293	22.5433	-113.262	48.4521	30.0208	-134.28	70.5052	2.52521	-66.5746	52.4258	-2.71215	-88.0113	37.9106	-0.0594789	-109.488	109.665	15.5286	-37.8549	121.346	5.53315	-6.56463	130.448	44.5199	-24.4559	
127	1.05833	107.743	78.4951	-3.18306	78.759	95.7985	-16.5067	52.0262	109.05	-31.5286	30.5339	104.45	-50.8692	86.3494	73.0687	-81.6723	56.2136	87.865	-88.7514	27.5887	91.6055	-71.2736	94.6413	48.3742	-94.9928	70.1647	53.0482	-122.459	41.2852	62.9274	-138.638	87.5436	24.0176	-88.737	70.326	23.0441	-116.552	50.1292	30.2126	-133.772	70.8072	0.985899	-71.1549	53.532	-0.261147	-92.9734	39.7753	-1.36915	-112.392	106.897	14.2033	-38.3365	122.127	9.63303	-3.64109	127.604	42.6902	-20.5864	
128	1.06667	108.444	81.4347	-0.854897	79.879	97.8076	-12.0755	51.4952	109.426	-31.8419	28.1861	105.093	-53.0871	85.3246	76.2178	-81.756	56.6157	83.4856	-87.3298	28.7888	89.1013	-69.2916	93.3745	47.9327	-92.1161	71.1703	56.6243	-122.651	40.2072	64.9113	-138.79	86.7847	24.7182	-90.4381	70.8594	25.1985	-115.987	49.0598	34.505	-135.927	69.5187	1.29383	-70.1808	57.1416	1.74508	-90.5129	42.3618	3.48546	-110.286	105.518	15.2914	-38.9685	121.977	6.91861	-7.44349	127.296	43.6853	-20.4428	
129	1.075	105.515	78.5926	-3.65072	78.038	98.6893	-14.9786	50.3332	113.092	-31.5296	27.198	107.008	-49.7624	81.3854	73.3476	-83.0849	55.1506	85.8186	-87.6636	27.3785	89.2351	-68.8294	91.8651	48.6331	-96.4843	68.7552	53.1759	-122.564	40.1423	65.9049	-139.219	85.419	23.8173	-87.8582	71.4883	23.0366	-111.905	47.2173	32.1017	-135.22	70.8496	5.93846	-66.7493	51.8519	-1.54587	-91.6735	37.5807	-1.72097	-111.047	106.127	15.8829	-37.0003	121.087	10.2643	-4.43535	128.121	45.4253	-22.4313	
130	1.08333	106.549	77.5778	-2.02725	75.889	101.347	-15.401	48.0574	109.83	-33.3041	26.152	103.752	-48.3171	85.2359	72.6917	-82.6471	57.1986	85.6823	-90.1268	27.5212	86.5469	-74.3639	88.5726	43.4472	-96.6101	66.8651	52.5181	-122.466	41.0324	60.7385	-137.37	83.1335	20.9755	-88.1897	68.1526	23.3925	-114.113	45.7407	32.4223	-135.548	69.3476	5.19402	-69.8899	53.6459	-2.00348	-88.0307	39.0827	-2.90239	-112.269	107.343	16.9369	-37.6243	118.328	5.78572	-5.92418	125.651	43.7409	-23.1441	
131	1.09167	104.732	76.9162	-5.00367	76.0028	97.3924	-11.3022	44.8463	110.829	-31.4955	24.1284	106.056	-46.2616	92.0125	74.0191	-82.9746	63.7792	82.8404	-97.5724	33.2391	91.3052	-85.8273	90.2089	42.9466	-91.7816	65.0208	51.5837	-121.848	34.6601	58.0114	-135.623	82.2314	20.5797	-85.8579	66.4236	23.327	-112.872	40.4509	32.9273	-132.029	69.3337	2.12207	-67.9751	50.6703	-2.24458	-90.9769	36.7107	-5.16071	-109.32	106.797	16.0642	-34.8409	119.856	6.66237	-10.0044	126.166	42.6442	-25.3469	
132	1.1	106.637	79.5523	0.111838	74.8803	97.7095	-11.1921	44.3412	109.368	-32.0436	23.768	101.53	-46.0274	94.2257	67.2302	-83.2286	69.3967	77.4625	-101.821	35.409	92.2062	-96.9937	91.6793	45.8577	-92.3362	62.3054	52.4414	-118.891	32.1553	61.611	-125.836	80.2061	21.3789	-87.0356	63.7494	25.4068	-109.871	36.1119	40.6913	-125.045	68.6833	1.68917	-64.0823	48.5552	-1.69846	-90.7377	31.8879	0.924206	-106.68	107.579	11.8127	-34.8976	118.142	3.5341	-4.66758	129.751	41.49	-20.3048	
